<?xml version="1.0" encoding="UTF-8" standalone="no"?> <!-- Created with Vectornator for iOS (http://vectornator.io/) --><!DOCTYPE svg PUBLIC "-//W3C//DTD SVG 1.1//EN" "http://www.w3.org/Graphics/SVG/1.1/DTD/svg11.dtd">
<svg height="100%" style="fill-rule:nonzero;clip-rule:evenodd;stroke-linecap:round;stroke-linejoin:round;" version="1.1" viewBox="0 0 388 100" width="100%" xml:space="preserve" xmlns="http://www.w3.org/2000/svg" xmlns:vectornator="http://vectornator.io" xmlns:xlink="http://www.w3.org/1999/xlink">
<metadata>
<vectornator:setting key="IsTimeLapseWatermarkDisabled" value="false"/>
<vectornator:setting key="UndoHistoryDisabled" value="true"/>
<vectornator:setting key="VNDimensionsVisible" value="true"/>
<vectornator:setting key="VNSnapToGuides" value="true"/>
<vectornator:setting key="WDCMYKEnabledKey" value="false"/>
<vectornator:setting key="WDDisplayWhiteBackground" value="false"/>
<vectornator:setting key="WDDynamicGuides" value="false"/>
<vectornator:setting key="WDGuidesVisible" value="true"/>
<vectornator:setting key="WDIsolateActiveLayer" value="false"/>
<vectornator:setting key="WDOutlineMode" value="false"/>
<vectornator:setting key="WDRulersVisible" value="true"/>
<vectornator:setting key="WDSnapToEdges" value="false"/>
<vectornator:setting key="WDSnapToGrid" value="false"/>
<vectornator:setting key="WDSnapToPoints" value="false"/>
<vectornator:setting key="WDUnits" value="Points"/>
</metadata>
<defs/>
<g id="Layer 1" vectornator:layerName="Layer 1">
<path d="M66.9188 24.1292C70.6353 25.6647 75.9299 28.3368 78.4253 29.486L84.997 32.5062L84.997 16.5362L66.9188 6.78202L66.9188 24.1292Z" fill="#62bcea" opacity="1"/>
<path d="M84.9967 79.5802L84.9967 78.2881L84.9967 47.534L66.9185 41.5162L66.9185 76.3718L66.9185 78.9137L66.9185 93.4529L84.9967 93.4911L84.9967 79.5802Z" fill="#62bcea" opacity="1"/>
<path d="M60.2404 6.89623L60.2404 24.3693L6.07963 48.9217L6.07963 38.9298C6.14452 38.6948 6.22121 38.484 6.32002 38.2929L6.39819 38.1499L13.61 33.9649C15.4019 33.0294 17.6097 31.7911 20.3233 30.0701L60.2404 6.89623ZM60.2404 41.6514L6.07963 59.9878L6.07963 60.2397L6.07963 71.511L6.07963 93.4918L24.1563 93.4734L60.2404 93.4394L60.2404 76.4164L24.1563 80.3806L24.1563 67.3855L60.2404 59.1485L60.2404 41.6514Z" fill="#006db6" opacity="1"/>
<path d="M125.264 43.0765L111.408 43.0765L111.408 55.456L126.91 55.456L126.91 59.1754L106.736 59.1754L106.736 24.8392L126.113 24.8392L126.113 28.5571L111.408 28.5571L111.408 39.4081L125.264 39.4081L125.264 43.0765Z" fill="#006db6" opacity="1"/>
<path d="M132.008 59.1747L132.008 24.8385L137.105 24.8385L148.517 42.2111C151.119 46.2348 153.243 49.8522 154.889 53.3664L155.048 53.3154C154.623 48.7313 154.517 44.5534 154.517 39.205L154.517 24.8385L158.869 24.8385L158.869 59.1747L154.198 59.1747L142.838 41.7511C140.342 37.9313 137.953 34.0081 136.201 30.2887L136.042 30.3397C136.309 34.6705 136.362 38.7974 136.362 44.5024L136.362 59.1747L132.008 59.1747Z" fill="#006db6" opacity="1"/>
<path d="M194.176 57.646C192.106 58.4103 187.966 59.5312 183.134 59.5312C177.719 59.5312 173.261 58.2065 169.756 54.9966C166.677 52.1448 164.767 47.5593 164.767 42.211C164.767 31.97 172.146 24.4817 184.143 24.4817C188.283 24.4817 191.575 25.3479 193.114 26.0612L191.946 29.6786C190.035 28.8125 187.647 28.2011 184.037 28.2011C175.331 28.2011 169.65 33.3966 169.65 42.0072C169.65 50.7182 175.066 55.8628 183.453 55.8628C186.479 55.8628 188.55 55.4566 189.61 54.9457L189.61 44.7061L182.391 44.7061L182.391 41.141L194.176 41.141L194.176 57.646Z" fill="#006db6" opacity="1"/>
<path d="M205.647 59.1741L200.976 59.1741L200.976 24.8379L205.647 24.8379L205.647 59.1741Z" fill="#006db6" opacity="1"/>
<path d="M213.24 59.1747L213.24 24.8385L218.337 24.8385L229.749 42.2111C232.351 46.2348 234.473 49.8522 236.12 53.3664L236.28 53.3154C235.855 48.7313 235.749 44.5534 235.749 39.205L235.749 24.8385L240.102 24.8385L240.102 59.1747L235.43 59.1747L224.07 41.7511C221.574 37.9313 219.185 34.0081 217.433 30.2887L217.274 30.3397C217.539 34.6705 217.594 38.7974 217.594 44.5024L217.594 59.1747L213.24 59.1747Z" fill="#006db6" opacity="1"/>
<path d="M266.595 43.0765L252.738 43.0765L252.738 55.456L268.241 55.456L268.241 59.1754L248.067 59.1754L248.067 24.8392L267.443 24.8392L267.443 28.5571L252.738 28.5571L252.738 39.4081L266.595 39.4081L266.595 43.0765Z" fill="#006db6" opacity="1"/>
<path d="M291.814 43.0765L277.957 43.0765L277.957 55.456L293.46 55.456L293.46 59.1754L273.286 59.1754L273.286 24.8392L292.662 24.8392L292.662 28.5571L277.957 28.5571L277.957 39.4081L291.814 39.4081L291.814 43.0765Z" fill="#006db6" opacity="1"/>
<path d="M303.176 40.9371L307.901 40.9371C312.839 40.9371 315.971 38.3386 315.971 34.4169C315.971 29.9842 312.626 28.0481 307.742 28.0481C305.512 28.0481 303.974 28.2009 303.176 28.4047L303.176 40.9371ZM298.558 25.2968C300.894 24.8892 304.291 24.5835 307.425 24.5835C312.361 24.5835 315.6 25.5006 317.775 27.3857C319.529 28.9142 320.589 31.2579 320.589 33.9569C320.589 38.4405 317.616 41.4466 313.899 42.6694L313.899 42.8222C316.607 43.7379 318.253 46.1849 319.102 49.75C320.272 54.5394 321.12 57.8497 321.863 59.1744L317.086 59.1744C316.501 58.1568 315.706 55.2527 314.75 50.9728C313.687 46.2345 311.724 44.4512 307.53 44.2984L303.176 44.2984L303.176 59.1744L298.558 59.1744L298.558 25.2968Z" fill="#006db6" opacity="1"/>
<path d="M345.437 43.0765L331.58 43.0765L331.58 55.456L347.083 55.456L347.083 59.1754L326.909 59.1754L326.909 24.8392L346.285 24.8392L346.285 28.5571L331.58 28.5571L331.58 39.4081L345.437 39.4081L345.437 43.0765Z" fill="#006db6" opacity="1"/>
<path d="M356.8 55.7104C357.969 55.8632 359.666 55.9142 361.473 55.9142C371.398 55.9142 376.707 50.6153 376.707 41.3438C376.761 33.2442 371.984 28.0996 362.216 28.0996C359.827 28.0996 358.022 28.302 356.8 28.5567L356.8 55.7104ZM352.181 25.3483C354.995 24.8897 358.34 24.584 362.002 24.584C368.639 24.584 373.363 26.1125 376.495 28.8624C379.734 31.6647 381.592 35.6388 381.592 41.191C381.592 46.7955 379.734 51.3796 376.442 54.5385C373.045 57.7484 367.524 59.4807 360.57 59.4807C357.225 59.4807 354.517 59.3278 352.181 59.0731L352.181 25.3483Z" fill="#006db6" opacity="1"/>
<path d="M110.913 93.4905L107.434 93.4905L107.434 73.6879L110.913 73.6879L110.913 93.4905Z" fill="#62bcea" opacity="1"/>
<path d="M130.392 90.8029L123.699 79.6009L123.699 93.4905L120.384 93.4905L120.384 73.6879L123.817 73.6879L131.277 86.3051L138.735 73.6879L142.155 73.6879L142.155 93.4905L138.838 93.4905L138.838 79.6009L132.145 90.8029L130.392 90.8029Z" fill="#62bcea" opacity="1"/>
<path d="M162.069 85.9241L158.96 77.3093L155.85 85.9241L162.069 85.9241ZM160.891 73.6876L168.467 93.4916L164.737 93.4916L163.013 88.7108L154.891 88.7108L153.166 93.4916L149.437 93.4916L157.028 73.6876L160.891 73.6876Z" fill="#62bcea" opacity="1"/>
<path d="M194.171 83.2082L194.171 83.8578C194.171 90.1813 190.074 93.8313 184.34 93.8313C178.606 93.8313 173.757 89.4029 173.757 83.5903C173.757 77.6914 178.503 73.3479 184.163 73.3479C189.366 73.3479 192.786 76.1912 193.891 80.1243L190.147 80.1243C189.189 77.748 187.067 76.2903 184.208 76.2903C180.625 76.2903 177.279 79.0911 177.279 83.5903C177.279 88.0032 180.655 90.9031 184.37 90.9031C187.495 90.9031 190.058 88.8651 190.397 85.9383L183.809 85.9383L183.809 83.2082L194.171 83.2082Z" fill="#62bcea" opacity="1"/>
<path d="M206.023 93.4905L202.544 93.4905L202.544 73.6879L206.023 73.6879L206.023 93.4905Z" fill="#62bcea" opacity="1"/>
<path d="M215.493 73.6883L218.957 73.6883L228.183 87.9458L228.183 73.6883L231.5 73.6883L231.5 93.4909L228.036 93.4909L218.809 79.2334L218.809 93.4909L215.493 93.4909L215.493 73.6883Z" fill="#62bcea" opacity="1"/>
<path d="M260.049 83.2082L260.049 83.8578C260.049 90.1813 255.954 93.8313 250.218 93.8313C244.484 93.8313 239.635 89.4029 239.635 83.5903C239.635 77.6914 244.382 73.3479 250.043 73.3479C255.244 73.3479 258.664 76.1912 259.771 80.1243L256.025 80.1243C255.069 77.748 252.947 76.2903 250.086 76.2903C246.503 76.2903 243.158 79.0911 243.158 83.5903C243.158 88.0032 246.534 90.9031 250.248 90.9031C253.373 90.9031 255.938 88.8651 256.275 85.9383L249.689 85.9383L249.689 83.2082L260.049 83.2082Z" fill="#62bcea" opacity="1"/>
</g>
</svg>
